<svg width="20" height="23" viewBox="0 0 20 23" fill="none" xmlns="http://www.w3.org/2000/svg">
<path d="M19.3744 8.00391C19.2653 8.06519 16.6672 9.35841 16.6672 12.2258C16.7897 15.4959 19.9459 16.6427 20 16.6427C19.9459 16.7039 19.5235 18.2049 18.2724 19.7783C17.2795 21.1336 16.1775 22.5 14.504 22.5C12.9121 22.5 12.3407 21.5967 10.504 21.5967C8.53147 21.5967 7.97335 22.5 6.46314 22.5C4.78967 22.5 3.60599 21.0603 2.55896 19.7178C1.19871 17.9606 0.0425398 15.203 0.00172334 12.5553C-0.0257834 11.1522 0.274128 9.77304 1.03544 8.60158C2.10998 6.96614 4.02835 5.85595 6.1233 5.81935C7.72845 5.7708 9.15703 6.80777 10.1366 6.80777C11.0754 6.80777 12.8305 5.81935 14.8163 5.81935C15.6735 5.82014 17.9592 6.05173 19.3744 8.00391ZM10.0009 5.53921C9.71515 4.25792 10.504 2.97663 11.2387 2.15931C12.1774 1.17089 13.6601 0.5 14.9388 0.5C15.0204 1.78129 14.5031 3.03791 13.5785 3.95312C12.7489 4.94154 11.3203 5.68565 10.0009 5.53921Z" fill="white"/>
</svg>
