<svg width="20" height="20" viewBox="0 0 20 20" fill="none" xmlns="http://www.w3.org/2000/svg">
<path fill-rule="evenodd" clip-rule="evenodd" d="M9.99998 3.125C9.72371 3.125 9.45876 3.23475 9.26341 3.4301C9.07064 3.62286 8.96123 3.8834 8.95837 4.1557C8.96044 4.27817 8.92628 4.39845 8.86138 4.50112C8.81443 4.57542 8.75138 4.6405 8.67433 4.69052C8.64715 4.70825 8.61849 4.72393 8.5886 4.73732C7.73925 5.14156 7.01516 5.76831 6.4933 6.5511C5.97164 7.33359 5.67163 8.24264 5.62498 9.18174V11.6667C5.62498 11.6918 5.62346 11.7169 5.62045 11.7418C5.54598 12.357 5.32809 12.9462 4.98433 13.4618C4.96642 13.4887 4.94819 13.5153 4.92966 13.5417H15.0703C15.0518 13.5153 15.0335 13.4887 15.0156 13.4618C14.6719 12.9462 14.454 12.357 14.3795 11.7418C14.3765 11.7169 14.375 11.6918 14.375 11.6667V9.18174C14.3283 8.24264 14.0283 7.33359 13.5067 6.5511C12.9824 5.76467 12.2539 5.13572 11.3995 4.73168C11.181 4.62837 11.0416 4.40835 11.0416 4.16667C11.0416 3.8904 10.9319 3.62545 10.7365 3.4301C10.5412 3.23475 10.2762 3.125 9.99998 3.125ZM7.74372 3.7653C7.82532 3.30659 8.04557 2.88017 8.37952 2.54621C8.80929 2.11644 9.39219 1.875 9.99998 1.875C10.6078 1.875 11.1907 2.11644 11.6204 2.54621C11.9544 2.88017 12.1746 3.30659 12.2562 3.7653C13.1768 4.26544 13.9636 4.98302 14.5467 5.85773C15.1968 6.83291 15.5693 7.96663 15.6243 9.13736C15.6247 9.14712 15.625 9.15689 15.625 9.16667V11.627C15.6798 12.0351 15.8271 12.4255 16.0557 12.7684C16.2909 13.1212 16.6056 13.4139 16.9746 13.6228C17.2216 13.7627 17.3433 14.0514 17.271 14.3259C17.1987 14.6004 16.9505 14.7917 16.6666 14.7917H3.33331C3.04946 14.7917 2.80126 14.6004 2.72894 14.3259C2.65662 14.0514 2.77834 13.7627 3.02534 13.6228C3.39431 13.4139 3.70906 13.1212 3.94427 12.7684C4.17286 12.4255 4.3201 12.0351 4.37498 11.627V9.16667C4.37498 9.15689 4.37521 9.14712 4.37566 9.13736C4.43061 7.96663 4.80311 6.83291 5.45324 5.85773C6.03637 4.98302 6.82316 4.26544 7.74372 3.7653Z" fill="#000"/>
<path fill-rule="evenodd" clip-rule="evenodd" d="M7.49998 13.5417C7.84515 13.5417 8.12498 13.8215 8.12498 14.1667V15C8.12498 15.4973 8.32252 15.9742 8.67415 16.3258C9.02578 16.6775 9.50269 16.875 9.99998 16.875C10.4973 16.875 10.9742 16.6775 11.3258 16.3258C11.6774 15.9742 11.875 15.4973 11.875 15V14.1667C11.875 13.8215 12.1548 13.5417 12.5 13.5417C12.8452 13.5417 13.125 13.8215 13.125 14.1667V15C13.125 15.8288 12.7957 16.6237 12.2097 17.2097C11.6236 17.7958 10.8288 18.125 9.99998 18.125C9.17117 18.125 8.37632 17.7958 7.79027 17.2097C7.20422 16.6237 6.87498 15.8288 6.87498 15V14.1667C6.87498 13.8215 7.1548 13.5417 7.49998 13.5417Z" fill="#000"/>
</svg>
