<svg width="20" height="20" viewBox="0 0 20 20" fill="none" xmlns="http://www.w3.org/2000/svg">
<path fill-rule="evenodd" clip-rule="evenodd" d="M6.71286 1.71296C7.14263 1.28319 7.72553 1.04175 8.33332 1.04175H11.6666C12.2744 1.04175 12.8573 1.28319 13.2871 1.71296C13.7169 2.14273 13.9583 2.72563 13.9583 3.33341V4.37508H15.8333C16.4411 4.37508 17.024 4.61652 17.4538 5.04629C17.8835 5.47607 18.125 6.05896 18.125 6.66675V11.0314C18.1252 11.0409 18.1252 11.0505 18.125 11.0601V15.0001C18.125 15.6079 17.8835 16.1908 17.4538 16.6205C17.024 17.0503 16.4411 17.2917 15.8333 17.2917H4.16665C3.55886 17.2917 2.97597 17.0503 2.5462 16.6205C2.11643 16.1908 1.87498 15.6079 1.87498 15.0001V11.06C1.87476 11.0505 1.87476 11.0409 1.87498 11.0314V6.66675C1.87498 6.05896 2.11642 5.47607 2.5462 5.04629C2.97597 4.61652 3.55886 4.37508 4.16665 4.37508H6.04165V3.33341C6.04165 2.72563 6.28309 2.14273 6.71286 1.71296ZM7.29165 4.37508H12.7083V3.33341C12.7083 3.05715 12.5986 2.7922 12.4032 2.59685C12.2079 2.40149 11.9429 2.29175 11.6666 2.29175H8.33332C8.05705 2.29175 7.7921 2.40149 7.59675 2.59685C7.4014 2.7922 7.29165 3.05715 7.29165 3.33341V4.37508ZM4.16665 5.62508C3.89038 5.62508 3.62543 5.73483 3.43008 5.93018C3.23473 6.12553 3.12498 6.39048 3.12498 6.66675V10.6197C5.26136 11.4306 7.57769 11.8751 9.99998 11.8751C12.3498 11.8779 14.6801 11.4521 16.875 10.6196V6.66675C16.875 6.39048 16.7652 6.12553 16.5699 5.93018C16.3745 5.73483 16.1096 5.62508 15.8333 5.62508H4.16665ZM9.99998 13.1251C12.344 13.1279 14.669 12.7299 16.875 11.9507L9.99998 13.1251ZM16.875 11.9507V15.0001C16.875 15.2763 16.7652 15.5413 16.5699 15.7366C16.3745 15.932 16.1096 16.0417 15.8333 16.0417H4.16665C3.89038 16.0417 3.62543 15.932 3.43008 15.7366C3.23473 15.5413 3.12498 15.2763 3.12498 15.0001V11.9509C5.27613 12.7112 7.59009 13.125 9.99998 13.1251M9.37498 10.0001C9.37498 9.6549 9.6548 9.37508 9.99998 9.37508H10.0083C10.3535 9.37508 10.6333 9.6549 10.6333 10.0001C10.6333 10.3453 10.3535 10.6251 10.0083 10.6251H9.99998C9.6548 10.6251 9.37498 10.3453 9.37498 10.0001Z" fill="#000"/>
</svg>
