<svg width="21" height="20" viewBox="0 0 21 20" fill="none" xmlns="http://www.w3.org/2000/svg">
<path fill-rule="evenodd" clip-rule="evenodd" d="M0.875015 18.3328C0.875015 17.9876 1.15484 17.7078 1.50002 17.7078H19.8333C20.1785 17.7078 20.4583 17.9876 20.4583 18.3328C20.4583 18.678 20.1785 18.9578 19.8333 18.9578H1.50002C1.15484 18.9578 0.875015 18.678 0.875015 18.3328Z" fill="#000"/>
<path fill-rule="evenodd" clip-rule="evenodd" d="M17.15 13.9995C17.4952 13.9995 17.775 14.2793 17.775 14.6245V18.3411C17.775 18.6863 17.4952 18.9661 17.15 18.9661C16.8049 18.9661 16.525 18.6863 16.525 18.3411V14.6245C16.525 14.2793 16.8049 13.9995 17.15 13.9995Z" fill="#000"/>
<path fill-rule="evenodd" clip-rule="evenodd" d="M14.7083 10.9078C14.7083 9.54598 15.8048 8.44948 17.1667 8.44948C18.5285 8.44948 19.625 9.54598 19.625 10.9078V12.7995C19.625 14.1613 18.5285 15.2578 17.1667 15.2578C15.8048 15.2578 14.7083 14.1613 14.7083 12.7995V10.9078ZM17.1667 9.69948C16.4952 9.69948 15.9583 10.2363 15.9583 10.9078V12.7995C15.9583 13.4709 16.4952 14.0078 17.1667 14.0078C17.8382 14.0078 18.375 13.4709 18.375 12.7995V10.9078C18.375 10.2363 17.8382 9.69948 17.1667 9.69948Z" fill="#000"/>
<path fill-rule="evenodd" clip-rule="evenodd" d="M3.48478 3.57776C3.22594 3.8392 3.04166 4.28257 3.04166 5.0245V18.3328C3.04166 18.678 2.76184 18.9578 2.41666 18.9578C2.07148 18.9578 1.79166 18.678 1.79166 18.3328V5.0245C1.79166 4.09142 2.02408 3.27645 2.5965 2.69829C3.17006 2.119 3.98048 1.88281 4.90837 1.88281H10.1C11.0279 1.88281 11.8371 2.11903 12.4088 2.69942C12.9788 3.27807 13.2083 4.093 13.2083 5.0245V18.3328C13.2083 18.678 12.9285 18.9578 12.5833 18.9578C12.2382 18.9578 11.9583 18.678 11.9583 18.3328V5.0245C11.9583 4.28099 11.7754 3.83758 11.5183 3.57664C11.263 3.31743 10.8305 3.13281 10.1 3.13281H4.90837C4.17793 3.13281 3.7425 3.31747 3.48478 3.57776Z" fill="#000"/>
<path fill-rule="evenodd" clip-rule="evenodd" d="M4.875 6.87447C4.875 6.52929 5.15483 6.24947 5.5 6.24947H9.62501C9.97019 6.24947 10.25 6.52929 10.25 6.87447C10.25 7.21965 9.97019 7.49947 9.62501 7.49947H5.5C5.15483 7.49947 4.875 7.21965 4.875 6.87447Z" fill="#000"/>
<path fill-rule="evenodd" clip-rule="evenodd" d="M4.875 9.99947C4.875 9.65429 5.15483 9.37447 5.5 9.37447H9.62501C9.97019 9.37447 10.25 9.65429 10.25 9.99947C10.25 10.3446 9.97019 10.6245 9.62501 10.6245H5.5C5.15483 10.6245 4.875 10.3446 4.875 9.99947Z" fill="#000"/>
<path fill-rule="evenodd" clip-rule="evenodd" d="M7.54168 14.5828C7.88686 14.5828 8.16668 14.8626 8.16668 15.2078V18.3328C8.16668 18.678 7.88686 18.9578 7.54168 18.9578C7.1965 18.9578 6.91668 18.678 6.91668 18.3328V15.2078C6.91668 14.8626 7.1965 14.5828 7.54168 14.5828Z" fill="#000"/>
</svg>
