<svg width="20" height="20" viewBox="0 0 20 20" fill="none" xmlns="http://www.w3.org/2000/svg">
<path fill-rule="evenodd" clip-rule="evenodd" d="M1.04169 7.08343C1.04169 6.73826 1.32151 6.45843 1.66669 6.45843H12.0834C12.4285 6.45843 12.7084 6.73826 12.7084 7.08343C12.7084 7.42861 12.4285 7.70843 12.0834 7.70843H1.66669C1.32151 7.70843 1.04169 7.42861 1.04169 7.08343Z" fill="#000"/>
<path fill-rule="evenodd" clip-rule="evenodd" d="M4.37502 13.7501C4.37502 13.4049 4.65484 13.1251 5.00002 13.1251H6.66669C7.01187 13.1251 7.29169 13.4049 7.29169 13.7501C7.29169 14.0953 7.01187 14.3751 6.66669 14.3751H5.00002C4.65484 14.3751 4.37502 14.0953 4.37502 13.7501Z" fill="#000"/>
<path fill-rule="evenodd" clip-rule="evenodd" d="M8.12502 13.7501C8.12502 13.4049 8.40484 13.1251 8.75002 13.1251H12.0834C12.4285 13.1251 12.7084 13.4049 12.7084 13.7501C12.7084 14.0953 12.4285 14.3751 12.0834 14.3751H8.75002C8.40484 14.3751 8.12502 14.0953 8.12502 13.7501Z" fill="#000"/>
<path fill-rule="evenodd" clip-rule="evenodd" d="M2.84675 4.09349C2.49253 4.44373 2.29169 5.10941 2.29169 6.5751V13.4251C2.29169 14.8908 2.49253 15.5565 2.84675 15.9067C3.20343 16.2594 3.88252 16.4584 5.36669 16.4584H14.6334C16.1175 16.4584 16.7966 16.2594 17.1533 15.9067C17.5075 15.5565 17.7084 14.8908 17.7084 13.4251V11.6918C17.7084 11.3466 17.9882 11.0668 18.3334 11.0668C18.6785 11.0668 18.9584 11.3466 18.9584 11.6918V13.4251C18.9584 14.8844 18.7884 16.0479 18.0322 16.7956C17.2784 17.5408 16.1075 17.7084 14.6334 17.7084H5.36669C3.89252 17.7084 2.72162 17.5408 1.96788 16.7956C1.21168 16.0479 1.04169 14.8844 1.04169 13.4251V6.5751C1.04169 5.11579 1.21168 3.95231 1.96788 3.20462C2.72162 2.45937 3.89252 2.29177 5.36669 2.29177H12.0834C12.4285 2.29177 12.7084 2.57159 12.7084 2.91677C12.7084 3.26194 12.4285 3.54177 12.0834 3.54177H5.36669C3.88252 3.54177 3.20343 3.74083 2.84675 4.09349Z" fill="#000"/>
<path fill-rule="evenodd" clip-rule="evenodd" d="M16.4275 2.33934C16.6611 2.2426 16.9299 2.29608 17.1086 2.47482L18.7753 4.14149C19.0194 4.38557 19.0194 4.7813 18.7753 5.02537C18.5312 5.26945 18.1355 5.26945 17.8914 5.02537L17.2917 4.42565V7.91677C17.2917 8.26194 17.0119 8.54177 16.6667 8.54177C16.3215 8.54177 16.0417 8.26194 16.0417 7.91677V2.91677C16.0417 2.66398 16.194 2.43608 16.4275 2.33934Z" fill="#000"/>
<path fill-rule="evenodd" clip-rule="evenodd" d="M17.1086 2.47482C17.3527 2.7189 17.3527 3.11463 17.1086 3.35871L15.442 5.02537C15.1979 5.26945 14.8022 5.26945 14.5581 5.02537C14.314 4.7813 14.314 4.38557 14.5581 4.14149L16.2247 2.47482C16.4688 2.23075 16.8646 2.23075 17.1086 2.47482Z" fill="#000"/>
</svg>
