<svg width="20" height="20" viewBox="0 0 20 20" fill="none" xmlns="http://www.w3.org/2000/svg">
<path fill-rule="evenodd" clip-rule="evenodd" d="M8.84325 6.74089C8.3231 6.74089 7.85158 7.19246 7.85158 7.80755C7.85158 8.22645 7.94176 8.41805 8.02159 8.51988C8.10704 8.62888 8.25073 8.72572 8.53362 8.82617L11.8937 9.99345C12.268 10.1261 12.6739 10.3249 12.9737 10.7074C13.2793 11.0972 13.4099 11.5931 13.4099 12.1909C13.4099 13.4425 12.4314 14.5076 11.1683 14.5076H9.07658C7.67811 14.5076 6.60158 13.3321 6.60158 11.9409C6.60158 11.5957 6.88141 11.3159 7.22658 11.3159C7.57176 11.3159 7.85158 11.5957 7.85158 11.9409C7.85158 12.6997 8.42506 13.2576 9.07658 13.2576H11.1683C11.6884 13.2576 12.1599 12.806 12.1599 12.1909C12.1599 11.772 12.0697 11.5804 11.9899 11.4786C11.9045 11.3696 11.7608 11.2727 11.4779 11.1723L8.11779 10.005C7.7435 9.87233 7.33762 9.67349 7.03783 9.29105C6.73224 8.90122 6.60158 8.40532 6.60158 7.80755C6.60158 6.55598 7.58007 5.49089 8.84325 5.49089H10.9349C12.3334 5.49089 13.4099 6.66637 13.4099 8.05755C13.4099 8.40273 13.1301 8.68255 12.7849 8.68255C12.4397 8.68255 12.1599 8.40273 12.1599 8.05755C12.1599 7.29873 11.5864 6.74089 10.9349 6.74089H8.84325Z" fill="#000"/>
<path fill-rule="evenodd" clip-rule="evenodd" d="M10 4.37435C10.3452 4.37435 10.625 4.65417 10.625 4.99935V14.9993C10.625 15.3445 10.3452 15.6243 10 15.6243C9.65484 15.6243 9.37502 15.3445 9.37502 14.9993V4.99935C9.37502 4.65417 9.65484 4.37435 10 4.37435Z" fill="#000"/>
<path fill-rule="evenodd" clip-rule="evenodd" d="M10 2.29102C5.74283 2.29102 2.29169 5.74215 2.29169 9.99935C2.29169 14.2565 5.74283 17.7077 10 17.7077C14.2572 17.7077 17.7084 14.2565 17.7084 9.99935C17.7084 5.74215 14.2572 2.29102 10 2.29102ZM1.04169 9.99935C1.04169 5.0518 5.05247 1.04102 10 1.04102C14.9476 1.04102 18.9584 5.0518 18.9584 9.99935C18.9584 14.9469 14.9476 18.9577 10 18.9577C5.05247 18.9577 1.04169 14.9469 1.04169 9.99935Z" fill="#000"/>
</svg>
