<svg width="16" height="17" viewBox="0 0 16 17" fill="none" xmlns="http://www.w3.org/2000/svg">
<path fill-rule="evenodd" clip-rule="evenodd" d="M10.1803 2.51774C10.9582 2.41828 11.7451 2.73636 12.5447 3.48872L12.5457 3.48959C13.3479 4.24832 13.7132 5.01798 13.6584 5.8019C13.6054 6.5594 13.1663 7.20054 12.6655 7.72958M12.6655 7.72958L7.19493 13.52C7.0407 13.688 6.83304 13.8302 6.63618 13.9355C6.43678 14.0421 6.20614 14.1333 5.98961 14.1718L5.98628 14.1724L3.84038 14.5389C3.32001 14.6287 2.82101 14.4986 2.46554 14.1615C2.11057 13.8249 1.95371 13.334 2.01182 12.811L2.01199 12.8095L2.25973 10.6401C2.2885 10.4243 2.36865 10.1908 2.46312 9.98821C2.55725 9.78636 2.68568 9.57233 2.83767 9.41053L2.83865 9.4095L8.31198 3.61616C8.81301 3.08691 9.4287 2.61386 10.1803 2.51774M9.03854 4.30327L3.56652 10.0952C3.51187 10.1535 3.43681 10.2663 3.36941 10.4109C3.30324 10.5528 3.26349 10.684 3.25158 10.7684L3.00571 12.9214L3.00563 12.9221C2.97729 13.1787 3.05704 13.3443 3.15366 13.4359C3.24985 13.5271 3.41752 13.5971 3.67048 13.5535L3.67125 13.5533L5.81599 13.187C5.8995 13.1719 6.02818 13.1266 6.16468 13.0536C6.30307 12.9796 6.40718 12.8998 6.45929 12.8427L6.46526 12.8361L11.9387 7.04283C12.3844 6.57194 12.6321 6.14283 12.6608 5.73217C12.6877 5.34786 12.5297 4.85103 11.8591 4.21667C11.1922 3.58934 10.6893 3.46081 10.3072 3.50967C9.89891 3.56187 9.48408 3.83269 9.03854 4.30327Z" fill="#000"/>
<path fill-rule="evenodd" clip-rule="evenodd" d="M7.68513 4.43216C7.95798 4.38965 8.21363 4.57638 8.25614 4.84923C8.50756 6.46298 9.81724 7.69805 11.4455 7.86205C11.7203 7.88973 11.9206 8.13489 11.8929 8.40964C11.8652 8.68439 11.6201 8.88469 11.3453 8.85702C9.26696 8.64769 7.58997 7.06943 7.26806 5.00317C7.22555 4.73032 7.41228 4.47467 7.68513 4.43216Z" fill="#000"/>
</svg>
