<svg width="27" height="16" viewBox="0 0 27 16" fill="none" xmlns="http://www.w3.org/2000/svg">
<path fill-rule="evenodd" clip-rule="evenodd" d="M10.4714 3.52851C10.7317 3.78886 10.7317 4.21097 10.4714 4.47132L6.94279 7.99992L10.4714 11.5285C10.7317 11.7889 10.7317 12.211 10.4714 12.4713C10.211 12.7317 9.78892 12.7317 9.52858 12.4713L5.52858 8.47132C5.26823 8.21097 5.26823 7.78886 5.52858 7.52851L9.52858 3.52851C9.78892 3.26816 10.211 3.26816 10.4714 3.52851Z" fill="white" fill-opacity="0.3"/>
<path fill-rule="evenodd" clip-rule="evenodd" d="M21.4714 3.52851C21.7317 3.78886 21.7317 4.21097 21.4714 4.47132L17.9428 7.99992L21.4714 11.5285C21.7317 11.7889 21.7317 12.211 21.4714 12.4713C21.211 12.7317 20.7889 12.7317 20.5286 12.4713L16.5286 8.47132C16.2682 8.21097 16.2682 7.78886 16.5286 7.52851L20.5286 3.52851C20.7889 3.26816 21.211 3.26816 21.4714 3.52851Z" fill="white" fill-opacity="0.3"/>
</svg>
