<svg width="20" height="20" viewBox="0 0 20 20" fill="none" xmlns="http://www.w3.org/2000/svg">
<path fill-rule="evenodd" clip-rule="evenodd" d="M12.7864 1.8577C12.9138 2.16606 12.9667 2.53499 12.9667 2.93362V8.30862H14.9167C15.5784 8.30862 16.2923 8.51106 16.58 9.14825C16.8679 9.78572 16.547 10.4539 16.1101 10.9473L16.1095 10.948L9.80247 18.1132C9.53912 18.4122 9.2556 18.6542 8.95653 18.8017C8.65481 18.9505 8.28849 19.0239 7.92512 18.8875C7.5614 18.7509 7.33398 18.4543 7.20531 18.1429C7.07789 17.8345 7.025 17.4656 7.025 17.067V11.692H5.075C4.41791 11.692 3.70636 11.4919 3.41824 10.8562C3.13074 10.2219 3.44681 9.55407 3.87799 9.05728L3.88084 9.05399L10.1892 1.88733C10.4525 1.58839 10.7361 1.34637 11.0351 1.19887C11.3369 1.05006 11.7032 0.976658 12.0665 1.11308C12.4303 1.24963 12.6577 1.54631 12.7864 1.8577ZM11.1275 2.71324C11.3265 2.48731 11.4848 2.37085 11.588 2.31993C11.5994 2.31434 11.6094 2.30982 11.6182 2.30617C11.6222 2.31438 11.6265 2.32395 11.6311 2.33506C11.6748 2.44076 11.7167 2.63225 11.7167 2.93362V8.93362C11.7167 9.2788 11.9965 9.55862 12.3417 9.55862H14.9167C15.1516 9.55862 15.2997 9.59563 15.3807 9.63165C15.411 9.64514 15.4284 9.65661 15.4377 9.66401C15.4371 9.67568 15.4342 9.69587 15.4244 9.72674C15.3981 9.81036 15.3284 9.94464 15.1738 10.1192L15.1725 10.1207L8.86436 17.2871C8.66521 17.5132 8.50689 17.6297 8.40362 17.6806C8.39228 17.6862 8.38226 17.6907 8.37349 17.6944C8.3695 17.6862 8.36516 17.6766 8.36057 17.6655C8.31689 17.5598 8.275 17.3683 8.275 17.067V11.067C8.275 10.7218 7.99518 10.442 7.65 10.442H5.075C4.84177 10.442 4.69518 10.4054 4.61517 10.3699C4.58585 10.3569 4.56887 10.3458 4.55972 10.3386C4.56027 10.3267 4.56309 10.3059 4.57295 10.274C4.59908 10.1894 4.66808 10.0543 4.82069 9.87814L11.1275 2.71324Z" fill="#000"/>
</svg>
