<svg width="20" height="20" viewBox="0 0 20 20" fill="none" xmlns="http://www.w3.org/2000/svg">
<path fill-rule="evenodd" clip-rule="evenodd" d="M9.99984 2.29169C5.74264 2.29169 2.2915 5.74283 2.2915 10C2.2915 14.2572 5.74264 17.7084 9.99984 17.7084C14.257 17.7084 17.7082 14.2572 17.7082 10C17.7082 5.74283 14.257 2.29169 9.99984 2.29169ZM1.0415 10C1.0415 5.05247 5.05229 1.04169 9.99984 1.04169C14.9474 1.04169 18.9582 5.05247 18.9582 10C18.9582 14.9476 14.9474 18.9584 9.99984 18.9584C5.05229 18.9584 1.0415 14.9476 1.0415 10Z" fill="#000"/>
<path fill-rule="evenodd" clip-rule="evenodd" d="M6.0415 2.50002C6.0415 2.15484 6.32133 1.87502 6.6665 1.87502H7.49984C7.7008 1.87502 7.8895 1.97165 8.00696 2.13471C8.12442 2.29776 8.15631 2.50735 8.09266 2.69797C6.51056 7.43616 6.51056 12.5639 8.09266 17.3021C8.15631 17.4927 8.12442 17.7023 8.00696 17.8653C7.8895 18.0284 7.7008 18.125 7.49984 18.125H6.6665C6.32133 18.125 6.0415 17.8452 6.0415 17.5C6.0415 17.1609 6.31162 16.8848 6.64845 16.8753C5.3253 12.3884 5.3253 7.6116 6.64845 3.12476C6.31162 3.11521 6.0415 2.83916 6.0415 2.50002Z" fill="#000"/>
<path fill-rule="evenodd" clip-rule="evenodd" d="M12.3019 1.90719C12.6293 1.79787 12.9833 1.97466 13.0927 2.30207C14.7606 7.29722 14.7606 12.7028 13.0927 17.698C12.9833 18.0254 12.6293 18.2022 12.3019 18.0928C11.9745 17.9835 11.7977 17.6295 11.907 17.3021C13.4891 12.5639 13.4891 7.43616 11.907 2.69797C11.7977 2.37056 11.9745 2.01652 12.3019 1.90719Z" fill="#000"/>
<path fill-rule="evenodd" clip-rule="evenodd" d="M2.13452 11.9929C2.29758 11.8754 2.50717 11.8435 2.69778 11.9072C7.43597 13.4893 12.5637 13.4893 17.3019 11.9072C17.4925 11.8435 17.7021 11.8754 17.8652 11.9929C18.0282 12.1104 18.1248 12.2991 18.1248 12.5V13.3334C18.1248 13.6785 17.845 13.9584 17.4998 13.9584C17.1607 13.9584 16.8847 13.6882 16.8751 13.3514C12.3883 14.6746 7.61141 14.6746 3.12458 13.3514C3.11503 13.6882 2.83898 13.9584 2.49984 13.9584C2.15466 13.9584 1.87484 13.6785 1.87484 13.3334V12.5C1.87484 12.2991 1.97147 12.1104 2.13452 11.9929Z" fill="#000"/>
<path fill-rule="evenodd" clip-rule="evenodd" d="M17.3019 8.09285C12.5637 6.51075 7.43597 6.51075 2.69778 8.09285C2.37038 8.20217 2.01633 8.02538 1.90701 7.69797C1.79769 7.37056 1.97448 7.01652 2.30189 6.9072C7.29704 5.2393 12.7026 5.2393 17.6978 6.9072C18.0252 7.01652 18.202 7.37056 18.0927 7.69797C17.9833 8.02538 17.6293 8.20217 17.3019 8.09285Z" fill="#000"/>
</svg>
