<svg width="23" height="23" viewBox="0 0 23 23" fill="none" xmlns="http://www.w3.org/2000/svg">
<path d="M21.126 11.7139C21.126 10.9225 21.0604 10.345 20.9186 9.74609H11.6974V13.318H17.1101C17.001 14.2057 16.4117 15.5425 15.1021 16.4408L15.0838 16.5603L17.9994 18.7738L18.2014 18.7936C20.0565 17.1145 21.126 14.6441 21.126 11.7139Z" fill="#4285F4"/>
<path d="M11.6968 21.1248C14.3485 21.1248 16.5747 20.2692 18.2007 18.7934L15.1015 16.4405C14.2722 17.0073 13.1591 17.403 11.6968 17.403C9.0996 17.403 6.89526 15.724 6.10947 13.4033L5.99429 13.4129L2.96264 15.7122L2.92299 15.8202C4.53805 18.9644 7.8555 21.1248 11.6968 21.1248Z" fill="#34A853"/>
<path d="M6.11005 13.4034C5.90271 12.8045 5.78272 12.1628 5.78272 11.4997C5.78272 10.8366 5.90271 10.195 6.09914 9.59612L6.09365 9.46857L3.02399 7.13232L2.92356 7.17914C2.25791 8.48388 1.87597 9.94905 1.87597 11.4997C1.87597 13.0504 2.25791 14.5155 2.92356 15.8203L6.11005 13.4034Z" fill="#FBBC05"/>
<path d="M11.6968 5.59664C13.5411 5.59664 14.7851 6.37733 15.4944 7.02974L18.2663 4.3775C16.5639 2.82681 14.3486 1.875 11.6968 1.875C7.85553 1.875 4.53806 4.03526 2.92299 7.1794L6.09858 9.59638C6.89528 7.27569 9.09963 5.59664 11.6968 5.59664Z" fill="#EB4335"/>
</svg>
