<svg width="18" height="19" viewBox="0 0 18 19" fill="none" xmlns="http://www.w3.org/2000/svg">
<path fill-rule="evenodd" clip-rule="evenodd" d="M9 15.6875C5.58274 15.6875 2.8125 12.9173 2.8125 9.5C2.8125 6.08274 5.58274 3.3125 9 3.3125C12.4173 3.3125 15.1875 6.08274 15.1875 9.5C15.1875 12.9173 12.4173 15.6875 9 15.6875ZM1.6875 9.5C1.6875 13.5386 4.96142 16.8125 9 16.8125C13.0386 16.8125 16.3125 13.5386 16.3125 9.5C16.3125 5.46142 13.0386 2.1875 9 2.1875C4.96142 2.1875 1.6875 5.46142 1.6875 9.5Z" fill="white"/>
<path fill-rule="evenodd" clip-rule="evenodd" d="M9 13.0625C9.31066 13.0625 9.5625 12.8107 9.5625 12.5V9.5C9.5625 9.18934 9.31066 8.9375 9 8.9375C8.68934 8.9375 8.4375 9.18934 8.4375 9.5V12.5C8.4375 12.8107 8.68934 13.0625 9 13.0625Z" fill="white"/>
<path fill-rule="evenodd" clip-rule="evenodd" d="M8.4375 6.5C8.4375 6.81066 8.68934 7.0625 9 7.0625H9.0075C9.31816 7.0625 9.57 6.81066 9.57 6.5C9.57 6.18934 9.31816 5.9375 9.0075 5.9375H9C8.68934 5.9375 8.4375 6.18934 8.4375 6.5Z" fill="white"/>
</svg>
