<svg width="20" height="20" viewBox="0 0 20 20" fill="none" xmlns="http://www.w3.org/2000/svg">
<path fill-rule="evenodd" clip-rule="evenodd" d="M9.37502 4.63268C9.37502 4.28751 9.65484 4.00768 10 4.00768H18.3334C18.6785 4.00768 18.9584 4.28751 18.9584 4.63268C18.9584 4.97786 18.6785 5.25768 18.3334 5.25768H10C9.65484 5.25768 9.37502 4.97786 9.37502 4.63268Z" fill="#000"/>
<path fill-rule="evenodd" clip-rule="evenodd" d="M10.809 2.47629C10.7325 2.55221 10.625 2.76131 10.625 3.49935V6.92435C10.625 7.66239 10.7325 7.87149 10.809 7.94741C10.8873 8.02504 11.1027 8.13268 11.85 8.13268H16.4834C17.2307 8.13268 17.4461 8.02504 17.5243 7.94741C17.6008 7.87149 17.7084 7.66239 17.7084 6.92435V3.49935C17.7084 2.76131 17.6008 2.55221 17.5243 2.47629C17.4461 2.39866 17.2307 2.29102 16.4834 2.29102H11.85C11.1027 2.29102 10.8873 2.39866 10.809 2.47629ZM9.9285 1.58908C10.4045 1.11671 11.114 1.04102 11.85 1.04102H16.4834C17.2194 1.04102 17.9289 1.11671 18.4049 1.58908C18.8825 2.06315 18.9584 2.77072 18.9584 3.49935V6.92435C18.9584 7.65298 18.8825 8.36055 18.4049 8.83462C17.9289 9.30699 17.2194 9.38268 16.4834 9.38268H11.85C11.114 9.38268 10.4045 9.30699 9.9285 8.83462C9.45083 8.36055 9.37502 7.65298 9.37502 6.92435V3.49935C9.37502 2.77072 9.45083 2.06315 9.9285 1.58908Z" fill="#000"/>
<path fill-rule="evenodd" clip-rule="evenodd" d="M1.04169 14.216C1.04169 13.8708 1.32151 13.591 1.66669 13.591H10C10.3452 13.591 10.625 13.8708 10.625 14.216C10.625 14.5612 10.3452 14.841 10 14.841H1.66669C1.32151 14.841 1.04169 14.5612 1.04169 14.216Z" fill="#000"/>
<path fill-rule="evenodd" clip-rule="evenodd" d="M2.47571 12.0596C2.39921 12.1355 2.29169 12.3446 2.29169 13.0827V16.5077C2.29169 17.2457 2.39921 17.4548 2.47571 17.5307C2.55393 17.6084 2.76937 17.716 3.51669 17.716H8.15002C8.89734 17.716 9.11278 17.6084 9.191 17.5307C9.2675 17.4548 9.37502 17.2457 9.37502 16.5077V13.0827C9.37502 12.3446 9.2675 12.1355 9.191 12.0596C9.11278 11.982 8.89734 11.8743 8.15002 11.8743H3.51669C2.76937 11.8743 2.55393 11.982 2.47571 12.0596ZM1.59517 11.1724C2.07112 10.7 2.78068 10.6243 3.51669 10.6243H8.15002C8.88603 10.6243 9.59559 10.7 10.0715 11.1724C10.5492 11.6465 10.625 12.3541 10.625 13.0827V16.5077C10.625 17.2363 10.5492 17.9439 10.0715 18.418C9.59559 18.8903 8.88603 18.966 8.15002 18.966H3.51669C2.78068 18.966 2.07112 18.8903 1.59517 18.418C1.1175 17.9439 1.04169 17.2363 1.04169 16.5077V13.0827C1.04169 12.3541 1.1175 11.6465 1.59517 11.1724Z" fill="#000"/>
<path fill-rule="evenodd" clip-rule="evenodd" d="M18.3334 11.8743C18.6785 11.8743 18.9584 12.1542 18.9584 12.4993C18.9584 16.0695 16.0702 18.9577 12.5 18.9577C12.2749 18.9577 12.0671 18.8366 11.9561 18.6406C11.8452 18.4447 11.8482 18.2042 11.9641 18.0111L12.8391 16.5528C13.0167 16.2568 13.4006 16.1608 13.6966 16.3384C13.9926 16.516 14.0885 16.8999 13.9109 17.1959L13.6848 17.5727C15.9924 17.0374 17.7084 14.9715 17.7084 12.4993C17.7084 12.1542 17.9882 11.8743 18.3334 11.8743Z" fill="#000"/>
<path fill-rule="evenodd" clip-rule="evenodd" d="M6.31519 2.42596C4.00761 2.96132 2.29169 5.0272 2.29169 7.49935C2.29169 7.84453 2.01187 8.12435 1.66669 8.12435C1.32151 8.12435 1.04169 7.84453 1.04169 7.49935C1.04169 3.92917 3.92984 1.04102 7.50002 1.04102C7.72519 1.04102 7.93295 1.16214 8.04389 1.35808C8.15484 1.55402 8.1518 1.79449 8.03596 1.98757L7.16097 3.44591C6.98337 3.74189 6.59946 3.83787 6.30347 3.66028C6.00748 3.48269 5.91151 3.09878 6.0891 2.80279L6.31519 2.42596Z" fill="#000"/>
</svg>
