<svg width="20" height="20" viewBox="0 0 20 20" fill="none" xmlns="http://www.w3.org/2000/svg">
<path fill-rule="evenodd" clip-rule="evenodd" d="M5.83335 9.79167C5.25806 9.79167 4.79169 10.258 4.79169 10.8333V15.8333C4.79169 16.4086 5.25806 16.875 5.83335 16.875H14.1667C14.742 16.875 15.2084 16.4086 15.2084 15.8333V10.8333C15.2084 10.258 14.742 9.79167 14.1667 9.79167H5.83335ZM3.54169 10.8333C3.54169 9.56768 4.5677 8.54167 5.83335 8.54167H14.1667C15.4323 8.54167 16.4584 9.56768 16.4584 10.8333V15.8333C16.4584 17.099 15.4323 18.125 14.1667 18.125H5.83335C4.5677 18.125 3.54169 17.099 3.54169 15.8333V10.8333Z" fill="#000"/>
<path fill-rule="evenodd" clip-rule="evenodd" d="M8.33335 13.3333C8.33335 12.4129 9.07955 11.6667 10 11.6667C10.9205 11.6667 11.6667 12.4129 11.6667 13.3333C11.6667 14.2538 10.9205 15 10 15C9.07955 15 8.33335 14.2538 8.33335 13.3333Z" fill="#000"/>
<path fill-rule="evenodd" clip-rule="evenodd" d="M10 3.125C9.28173 3.125 8.59285 3.41034 8.08494 3.91825C7.57703 4.42616 7.29169 5.11504 7.29169 5.83333V9.16667C7.29169 9.51184 7.01187 9.79167 6.66669 9.79167C6.32151 9.79167 6.04169 9.51184 6.04169 9.16667V5.83333C6.04169 4.78352 6.45872 3.7767 7.20106 3.03437C7.94339 2.29204 8.95021 1.875 10 1.875C11.0498 1.875 12.0567 2.29204 12.799 3.03437C13.5413 3.7767 13.9584 4.78352 13.9584 5.83333V9.16667C13.9584 9.51184 13.6785 9.79167 13.3334 9.79167C12.9882 9.79167 12.7084 9.51184 12.7084 9.16667V5.83333C12.7084 5.11504 12.423 4.42616 11.9151 3.91825C11.4072 3.41034 10.7183 3.125 10 3.125Z" fill="#000"/>
</svg>
