<svg width="158" height="24" viewBox="0 0 158 24" fill="none" xmlns="http://www.w3.org/2000/svg">
<path d="M7.91953 24L3.84728 21.0953L9.69651 13.6883L0.55246 10.9652L2.10732 6.28139L11.1033 9.40393L10.8812 0H15.9159L15.6938 9.40393L24.6528 6.28139L26.2076 10.9652L17.1006 13.6883L22.8758 21.0953L18.8035 24L13.3986 16.3026L7.91953 24Z" fill="#27A376"/>
<path d="M36.2076 20.7183V3.2578H39.4705V10.436H47.1958V3.2578H50.4586V20.7183H47.1958V13.5159H39.4705V20.7183H36.2076Z" fill="white"/>
<path d="M58.1489 21.1063C57.1333 21.1063 56.3056 20.9325 55.6658 20.5849C55.026 20.2373 54.5262 19.7968 54.1663 19.2633C53.8144 18.7298 53.5625 18.176 53.4106 17.6021C53.2586 17.0201 53.1667 16.4906 53.1347 16.0137C53.1027 15.5367 53.0867 15.1892 53.0867 14.9709V7.62293H56.3975V13.8069C56.3975 14.106 56.4135 14.4899 56.4455 14.9588C56.4775 15.4195 56.5775 15.8843 56.7454 16.3532C56.9134 16.822 57.1853 17.2141 57.5611 17.5294C57.945 17.8446 58.4848 18.0022 59.1806 18.0022C59.4605 18.0022 59.7603 17.9578 60.0802 17.8689C60.4001 17.7799 60.7 17.6102 60.9799 17.3596C61.2598 17.1009 61.4877 16.725 61.6637 16.2319C61.8476 15.7308 61.9396 15.076 61.9396 14.2676L63.8109 15.1649C63.8109 16.1996 63.603 17.1696 63.1871 18.075C62.7713 18.9804 62.1435 19.7119 61.3038 20.2697C60.4721 20.8274 59.4205 21.1063 58.1489 21.1063ZM62.3474 20.7183V16.3774H61.9396V7.62293H65.2264V20.7183H62.3474Z" fill="white"/>
<path d="M83.6737 20.7183V12.9823C83.6737 12.1174 83.4698 11.4465 83.062 10.9695C82.6621 10.4845 82.1063 10.242 81.3945 10.242C80.9387 10.242 80.5428 10.3511 80.207 10.5694C79.8711 10.7796 79.6072 11.0787 79.4152 11.4667C79.2313 11.8466 79.1393 12.2872 79.1393 12.7883L77.7718 11.8668C77.7718 10.9695 77.9797 10.1773 78.3956 9.49024C78.8195 8.80313 79.3833 8.26962 80.087 7.88969C80.7988 7.50168 81.5865 7.30767 82.4502 7.30767C83.9297 7.30767 85.0453 7.75227 85.797 8.64146C86.5567 9.52257 86.9366 10.6785 86.9366 12.1093V20.7183H83.6737ZM68.0552 20.7183V7.62293H70.9342V11.9638H71.3421V20.7183H68.0552ZM75.8765 20.7183V12.9823C75.8765 12.1174 75.6726 11.4465 75.2647 10.9695C74.8648 10.4845 74.309 10.242 73.5973 10.242C72.9175 10.242 72.3697 10.4805 71.9539 10.9574C71.546 11.4263 71.3421 12.0366 71.3421 12.7883L69.9746 11.8183C69.9746 10.9614 70.1865 10.1935 70.6103 9.51449C71.0342 8.83547 71.602 8.29791 72.3137 7.90182C73.0335 7.50572 73.8372 7.30767 74.7249 7.30767C75.7405 7.30767 76.5722 7.52593 77.22 7.96244C77.8758 8.39896 78.3596 8.98097 78.6715 9.70849C78.9834 10.436 79.1393 11.2363 79.1393 12.1093V20.7183H75.8765Z" fill="white"/>
<path d="M93.1548 21.0821C92.2271 21.0821 91.4394 20.9042 90.7916 20.5486C90.1518 20.1848 89.664 19.7038 89.3281 19.1056C89.0002 18.4994 88.8363 17.8325 88.8363 17.105C88.8363 16.4987 88.9283 15.945 89.1122 15.4438C89.2961 14.9426 89.592 14.5021 89.9999 14.1221C90.4157 13.7341 90.9715 13.4108 91.6673 13.1521C92.1471 12.9743 92.7189 12.8166 93.3827 12.6792C94.0465 12.5418 94.7982 12.4124 95.6379 12.2912C96.4776 12.1619 97.4013 12.0204 98.4089 11.8668L97.2333 12.5216C97.2333 11.7456 97.0494 11.1757 96.6815 10.8119C96.3137 10.4481 95.6979 10.2663 94.8342 10.2663C94.3544 10.2663 93.8545 10.3835 93.3347 10.6179C92.8149 10.8523 92.451 11.2686 92.2431 11.8668L89.2921 10.921C89.62 9.83783 90.2358 8.95672 91.1395 8.2777C92.0432 7.59868 93.2747 7.25917 94.8342 7.25917C95.9778 7.25917 96.9934 7.43701 97.8811 7.79269C98.7688 8.14836 99.4406 8.76272 99.8964 9.63574C100.152 10.1208 100.304 10.6058 100.352 11.0908C100.4 11.5758 100.424 12.1174 100.424 12.7156V20.7183H97.5692V18.0265L97.9771 18.5843C97.3453 19.4654 96.6615 20.104 95.9258 20.5001C95.1981 20.8881 94.2744 21.0821 93.1548 21.0821ZM93.8505 18.4873C94.4503 18.4873 94.9541 18.3822 95.362 18.172C95.7779 17.9537 96.1057 17.7072 96.3457 17.4323C96.5936 17.1575 96.7615 16.9271 96.8495 16.7412C97.0174 16.3855 97.1134 15.9733 97.1374 15.5044C97.1694 15.0275 97.1854 14.6314 97.1854 14.3161L98.145 14.5586C97.1774 14.7203 96.3936 14.8577 95.7938 14.9709C95.1941 15.076 94.7102 15.173 94.3424 15.2619C93.9745 15.3508 93.6506 15.4478 93.3707 15.5529C93.0508 15.6823 92.7909 15.8237 92.591 15.9773C92.399 16.1228 92.2551 16.2845 92.1591 16.4623C92.0712 16.6402 92.0272 16.8382 92.0272 17.0565C92.0272 17.3556 92.0992 17.6142 92.2431 17.8325C92.395 18.0427 92.607 18.2043 92.8789 18.3175C93.1508 18.4307 93.4747 18.4873 93.8505 18.4873Z" fill="white"/>
<path d="M111.872 20.7183V14.5344C111.872 14.2353 111.856 13.8554 111.824 13.3946C111.792 12.9258 111.692 12.4569 111.524 11.9881C111.357 11.5192 111.081 11.1272 110.697 10.8119C110.321 10.4966 109.785 10.339 109.089 10.339C108.809 10.339 108.51 10.3835 108.19 10.4724C107.87 10.5613 107.57 10.7351 107.29 10.9938C107.01 11.2444 106.778 11.6162 106.594 12.1093C106.418 12.6024 106.33 13.2572 106.33 14.0736L104.459 13.1763C104.459 12.1416 104.667 11.1716 105.083 10.2663C105.499 9.3609 106.122 8.62934 106.954 8.07157C107.794 7.5138 108.849 7.23492 110.121 7.23492C111.137 7.23492 111.964 7.40872 112.604 7.75631C113.244 8.10391 113.74 8.54446 114.092 9.07798C114.451 9.61149 114.707 10.1693 114.859 10.7513C115.011 11.3252 115.103 11.8506 115.135 12.3276C115.167 12.8045 115.183 13.1521 115.183 13.3704V20.7183H111.872ZM103.019 20.7183V7.62293H105.922V11.9638H106.33V20.7183H103.019Z" fill="white"/>
<path d="M118.036 20.7183V2.89404H121.299V20.7183H118.036Z" fill="white"/>
<path d="M124.635 5.80413V2.89404H127.898V5.80413H124.635ZM124.635 20.7183V7.62293H127.898V20.7183H124.635Z" fill="white"/>
<path d="M139.823 20.7183V14.5344C139.823 14.2353 139.807 13.8554 139.775 13.3946C139.744 12.9258 139.644 12.4569 139.476 11.9881C139.308 11.5192 139.032 11.1272 138.648 10.8119C138.272 10.4966 137.736 10.339 137.04 10.339C136.761 10.339 136.461 10.3835 136.141 10.4724C135.821 10.5613 135.521 10.7351 135.241 10.9938C134.961 11.2444 134.729 11.6162 134.545 12.1093C134.369 12.6024 134.281 13.2572 134.281 14.0736L132.41 13.1763C132.41 12.1416 132.618 11.1716 133.034 10.2663C133.45 9.3609 134.074 8.62934 134.905 8.07157C135.745 7.5138 136.801 7.23492 138.072 7.23492C139.088 7.23492 139.915 7.40872 140.555 7.75631C141.195 8.10391 141.691 8.54446 142.043 9.07798C142.403 9.61149 142.658 10.1693 142.81 10.7513C142.962 11.3252 143.054 11.8506 143.086 12.3276C143.118 12.8045 143.134 13.1521 143.134 13.3704V20.7183H139.823ZM130.971 20.7183V7.62293H133.874V11.9638H134.281V20.7183H130.971Z" fill="white"/>
<path d="M151.535 21.0821C150.207 21.0821 149.036 20.7951 148.02 20.2212C147.012 19.6392 146.221 18.8429 145.645 17.8325C145.077 16.814 144.793 15.6499 144.793 14.3404C144.793 12.9096 145.073 11.6647 145.633 10.6058C146.193 9.54682 146.964 8.72634 147.948 8.14432C148.932 7.55422 150.063 7.25917 151.343 7.25917C152.702 7.25917 153.858 7.58251 154.81 8.2292C155.761 8.87589 156.465 9.78529 156.921 10.9574C157.377 12.1295 157.537 13.5078 157.401 15.0922H154.174V13.8796C154.174 12.5458 153.962 11.5879 153.538 11.0059C153.122 10.4158 152.438 10.1208 151.487 10.1208C150.375 10.1208 149.555 10.4643 149.028 11.1514C148.508 11.8304 148.248 12.8368 148.248 14.1706C148.248 15.3912 148.508 16.337 149.028 17.008C149.555 17.6708 150.327 18.0022 151.343 18.0022C151.983 18.0022 152.53 17.8608 152.986 17.5779C153.442 17.2949 153.79 16.8867 154.03 16.3532L157.293 17.299C156.805 18.4953 156.033 19.4249 154.978 20.0878C153.93 20.7507 152.782 21.0821 151.535 21.0821ZM147.24 15.0922V12.6428H155.829V15.0922H147.24Z" fill="white"/>
</svg>
