<svg width="20" height="20" viewBox="0 0 20 20" fill="none" xmlns="http://www.w3.org/2000/svg">
<path fill-rule="evenodd" clip-rule="evenodd" d="M4.16673 4.79169C3.59144 4.79169 3.12507 5.25806 3.12507 5.83335V14.1667C3.12507 14.742 3.59144 15.2084 4.16673 15.2084H15.8334C16.4087 15.2084 16.8751 14.742 16.8751 14.1667V5.83335C16.8751 5.25806 16.4087 4.79169 15.8334 4.79169H4.16673ZM1.87507 5.83335C1.87507 4.5677 2.90108 3.54169 4.16673 3.54169H15.8334C17.0991 3.54169 18.1251 4.5677 18.1251 5.83335V14.1667C18.1251 15.4323 17.0991 16.4584 15.8334 16.4584H4.16673C2.90108 16.4584 1.87507 15.4323 1.87507 14.1667V5.83335Z" fill="#000"/>
<path fill-rule="evenodd" clip-rule="evenodd" d="M1.98003 5.48667C2.17151 5.19946 2.55955 5.12185 2.84675 5.31332L10.0001 10.0822L17.1534 5.31332C17.4406 5.12185 17.8286 5.19946 18.0201 5.48667C18.2116 5.77387 18.134 6.16192 17.8468 6.35339L10.3468 11.3534C10.1368 11.4933 9.86332 11.4933 9.65338 11.3534L2.15338 6.35339C1.86617 6.16192 1.78856 5.77387 1.98003 5.48667Z" fill="#000"/>
</svg>
