<svg width="21" height="20" viewBox="0 0 21 20" fill="none" xmlns="http://www.w3.org/2000/svg">
<path fill-rule="evenodd" clip-rule="evenodd" d="M6.16667 4.79102C5.66939 4.79102 5.19248 4.98856 4.84085 5.34019C4.48922 5.69182 4.29167 6.16873 4.29167 6.66602V15.9905L6.55806 13.7241C6.67527 13.6069 6.83424 13.541 7.00001 13.541H14.5C14.9973 13.541 15.4742 13.3435 15.8258 12.9918C16.1775 12.6402 16.375 12.1633 16.375 11.666V6.66602C16.375 6.16873 16.1775 5.69182 15.8258 5.34019C15.4742 4.98856 14.9973 4.79102 14.5 4.79102H6.16667ZM3.95696 4.45631C4.54301 3.87026 5.33787 3.54102 6.16667 3.54102H14.5C15.3288 3.54102 16.1237 3.87026 16.7097 4.45631C17.2958 5.04236 17.625 5.83721 17.625 6.66602V11.666C17.625 12.4948 17.2958 13.2897 16.7097 13.8757C16.1237 14.4618 15.3288 14.791 14.5 14.791H7.25889L4.10861 17.9413C3.92986 18.12 3.66104 18.1735 3.42749 18.0768C3.19395 17.98 3.04167 17.7521 3.04167 17.4993V6.66602C3.04167 5.83721 3.37091 5.04236 3.95696 4.45631Z" fill="#000"/>
<path fill-rule="evenodd" clip-rule="evenodd" d="M6.37501 7.49935C6.37501 7.15417 6.65483 6.87435 7.00001 6.87435H13.6667C14.0118 6.87435 14.2917 7.15417 14.2917 7.49935C14.2917 7.84453 14.0118 8.12435 13.6667 8.12435H7.00001C6.65483 8.12435 6.37501 7.84453 6.37501 7.49935Z" fill="#000"/>
<path fill-rule="evenodd" clip-rule="evenodd" d="M6.37501 10.8327C6.37501 10.4875 6.65483 10.2077 7.00001 10.2077H12C12.3452 10.2077 12.625 10.4875 12.625 10.8327C12.625 11.1779 12.3452 11.4577 12 11.4577H7.00001C6.65483 11.4577 6.37501 11.1779 6.37501 10.8327Z" fill="#000"/>
</svg>
