<svg width="16" height="17" viewBox="0 0 16 17" fill="none" xmlns="http://www.w3.org/2000/svg">
<path d="M14.3533 11.12C14.2467 10.94 13.9467 10.66 13.2 10.7933C12.7867 10.8667 12.3667 10.9 11.9467 10.88C10.3933 10.8133 8.98665 10.1 8.00666 9C7.13999 8.03333 6.60665 6.77333 6.59999 5.41333C6.59999 4.65333 6.74665 3.92 7.04665 3.22666C7.33999 2.55333 7.13332 2.2 6.98665 2.05333C6.83332 1.9 6.47332 1.68666 5.76665 1.98C3.03999 3.12666 1.35332 5.86 1.55332 8.78666C1.75332 11.54 3.68666 13.8933 6.24665 14.78C6.85999 14.9933 7.50666 15.12 8.17332 15.1467C8.27999 15.1533 8.38665 15.16 8.49332 15.16C10.7267 15.16 12.82 14.1067 14.14 12.3133C14.5867 11.6933 14.4667 11.3 14.3533 11.12Z" fill="#687588"/>
</svg>
