<svg width="100" height="61" viewBox="0 0 100 61" fill="none" xmlns="http://www.w3.org/2000/svg">
<path fill-rule="evenodd" clip-rule="evenodd" d="M17.1767 0.985037C10.3045 2.52154 2.82612 6.42972 0.165306 13.3241C-0.194177 14.1704 0.00950572 15.1867 1.00718 15.6719C1.78981 16.0337 2.94518 15.7541 3.30467 14.9077C6.02098 7.804 14.4414 4.59049 21.4265 3.73295C36.2859 1.89252 50.1424 9.10497 60.652 19.0013C66.0232 24.1478 70.6779 29.9577 75.0021 35.9945C79.707 42.6205 83.8803 49.5545 87.5219 56.7966C87.49 56.8826 87.4494 56.9871 87.4088 57.0916C87.38 57.1658 87.3512 57.2401 87.3255 57.3076C87.1576 57.1751 86.9249 57.0566 86.7465 56.9657C86.6752 56.9294 86.6126 56.8975 86.5663 56.8709C85.6995 56.2744 84.8488 55.6597 83.9981 55.045C83.1473 54.4302 82.2966 53.8155 81.4297 53.2189C74.7746 48.4974 68.0462 43.7119 61.3179 38.9264C60.5908 38.3553 59.5553 38.3528 58.912 39.08C58.3331 39.7345 58.3393 40.9006 59.0665 41.4717C61.1293 42.9526 63.1911 44.4164 65.2529 45.8802C67.3146 47.3439 69.3763 48.8077 71.439 50.2885C73.2824 51.5775 75.1097 52.8847 76.937 54.1919C78.7643 55.4991 80.5915 56.8062 82.4349 58.0952C83.3771 58.7899 84.2461 59.4206 85.1839 60.0469C86.1216 60.6733 87.1193 61.1585 88.2103 60.9516C90.1349 60.6476 90.7251 58.7275 91.2324 57.0768C91.3014 56.8522 91.3689 56.6326 91.4381 56.4227L99.9409 30.9719C100.232 30.1299 99.4093 29.1532 98.4204 28.8046C97.4404 28.5926 96.6508 29.192 96.3645 30.1023C95.6442 32.3097 94.9068 34.5182 94.1694 36.7267C93.432 38.9352 92.6945 41.1438 91.9743 43.3512C91.2346 45.645 90.4699 47.917 89.7086 50.1791C89.4779 50.8644 89.2476 51.5488 89.0183 52.2327C85.1519 44.8891 80.7729 37.8497 75.7975 31.2091C66.5814 18.8973 55.2009 7.27253 40.1795 2.33017C32.772 -0.147583 24.7962 -0.736399 17.1767 0.985037ZM87.5263 57.5249C87.5699 57.5765 87.5863 57.5779 87.5836 57.5657C87.5808 57.5535 87.5591 57.5277 87.5263 57.5249Z" fill="#1F2937"/>
</svg>
