<svg width="20" height="20" viewBox="0 0 20 20" fill="none" xmlns="http://www.w3.org/2000/svg">
<path fill-rule="evenodd" clip-rule="evenodd" d="M9.99417 1.04297C10.2321 1.04297 10.4493 1.17803 10.5546 1.39137L12.9808 6.30741L18.4055 7.0936C18.641 7.12774 18.8368 7.29271 18.9103 7.5191C18.9838 7.74548 18.9223 7.99397 18.7518 8.15999L14.8208 11.9864L15.7477 17.3898C15.7879 17.6244 15.6914 17.8615 15.4988 18.0013C15.3062 18.1411 15.0509 18.1594 14.8403 18.0484L9.99967 15.4976L5.14752 18.0487C4.93695 18.1594 4.68177 18.1409 4.4893 18.0011C4.29683 17.8613 4.20044 17.6243 4.24067 17.3898L5.16756 11.9864L1.23656 8.15999C1.066 7.99397 1.00455 7.74548 1.07806 7.5191C1.15158 7.29271 1.3473 7.12774 1.58286 7.0936L7.00753 6.30741L9.43371 1.39137C9.53899 1.17803 9.75627 1.04297 9.99417 1.04297ZM9.99417 3.0802L7.98296 7.1554C7.89189 7.33994 7.71581 7.46782 7.51215 7.49734L3.01713 8.14879L6.27512 11.3201C6.42263 11.4637 6.48998 11.6707 6.45517 11.8736L5.6868 16.3529L9.70915 14.2381C9.89142 14.1423 10.1092 14.1424 10.2914 14.2384L14.3013 16.3514L13.5332 11.8736C13.4984 11.6707 13.5657 11.4637 13.7132 11.3201L16.9712 8.14879L12.4762 7.49734C12.2725 7.46782 12.0965 7.33994 12.0054 7.1554L9.99417 3.0802Z" fill="#000"/>
</svg>
