<svg width="266" height="166" viewBox="0 0 266 166" fill="none" xmlns="http://www.w3.org/2000/svg">
<path d="M92.0686 9.64897C92.0686 13.8265 98.7644 17.213 94.105 17.213C89.4456 17.213 85.6685 13.8265 85.6685 9.64897C85.6685 5.47148 89.4456 2.08496 94.105 2.08496C98.7644 2.08496 92.0686 5.47148 92.0686 9.64897Z" fill="#FE964A"/>
<path d="M158.23 6L159.362 9.4844H163.026L160.062 11.6379L161.194 15.1223L158.23 12.9688L155.266 15.1223L156.398 11.6379L153.434 9.4844H157.098L158.23 6Z" fill="#FE964A"/>
<path d="M34.3784 79.6555C34.3784 79.6555 45.1265 74.3022 47.5648 77.1081C48.9043 78.6496 49.9159 80.5166 48.7162 82.0335C47.7914 83.2028 46.4563 83.3519 44.8919 83.0771C41.5791 82.4954 41.6293 77.8949 42.9591 75.0457C44.7952 71.1119 54.5417 73.4338 54.5417 73.4338" stroke="#0BA259" stroke-width="2.01707"/>
<circle cx="229.217" cy="74.2923" r="5.88312" fill="#323B49"/>
<path d="M56.0474 135.99L56.8844 128.77L62.7199 132.47L63.3851 126.413L68.7079 130.08L70.3656 123.532" stroke="#2F78EE" stroke-width="1.68089"/>
<path d="M193.301 21.9252C193.301 21.9252 192.482 17.0644 194.831 16.0956C196.803 15.2817 198.514 18.8811 200.135 17.5761C201.777 16.2543 197.678 14.1603 199.013 12.5794C200.418 10.9155 204.929 12.5794 204.929 12.5794" stroke="#2F78EE" stroke-width="2.01707"/>
<path d="M32.9547 14.6399L54.5611 25.3961L49.1608 32.7604L32.9547 14.6399Z" fill="#2F78EE"/>
<circle cx="224.346" cy="94.3124" r="2.52134" fill="#323B49"/>
<path d="M200.116 127.502C202.887 127.781 205.58 123.565 205.269 126.656C204.958 129.747 202.46 132.026 199.689 131.747C196.918 131.468 194.924 128.737 195.235 125.646C195.546 122.555 197.345 127.223 200.116 127.502Z" fill="#2F78EE"/>
<path d="M209.11 38.9932L210.997 44.8005H217.103L212.163 48.3896L214.05 54.197L209.11 50.6078L204.17 54.197L206.057 48.3896L201.117 44.8005H207.223L209.11 38.9932Z" fill="#0BA259"/>
<rect x="82.7998" y="25.8232" width="100" height="100" rx="50" fill="#27A376"/>
<g filter="url(#filter0_d_2497_51626)">
<rect x="102.8" y="45.8232" width="60" height="60" rx="30" fill="white" shape-rendering="crispEdges"/>
<path fill-rule="evenodd" clip-rule="evenodd" d="M143.684 68.6894C144.172 69.1775 144.172 69.969 143.684 70.4571L131.184 82.9571C130.696 83.4453 129.904 83.4453 129.416 82.9571L123.166 76.7071C122.678 76.219 122.678 75.4275 123.166 74.9394C123.654 74.4512 124.446 74.4512 124.934 74.9394L130.3 80.3055L141.916 68.6894C142.404 68.2012 143.196 68.2012 143.684 68.6894Z" fill="#111827"/>
</g>
<defs>
<filter id="filter0_d_2497_51626" x="62.7998" y="25.8232" width="140" height="140" filterUnits="userSpaceOnUse" color-interpolation-filters="sRGB">
<feFlood flood-opacity="0" result="BackgroundImageFix"/>
<feColorMatrix in="SourceAlpha" type="matrix" values="0 0 0 0 0 0 0 0 0 0 0 0 0 0 0 0 0 0 127 0" result="hardAlpha"/>
<feOffset dy="20"/>
<feGaussianBlur stdDeviation="20"/>
<feComposite in2="hardAlpha" operator="out"/>
<feColorMatrix type="matrix" values="0 0 0 0 0 0 0 0 0 0 0 0 0 0 0 0 0 0 0.3 0"/>
<feBlend mode="normal" in2="BackgroundImageFix" result="effect1_dropShadow_2497_51626"/>
<feBlend mode="normal" in="SourceGraphic" in2="effect1_dropShadow_2497_51626" result="shape"/>
</filter>
</defs>
</svg>
