<svg width="17" height="17" viewBox="0 0 17 17" fill="none" xmlns="http://www.w3.org/2000/svg">
<path d="M8.50002 13.1666C11.0773 13.1666 13.1667 11.0773 13.1667 8.49996C13.1667 5.92263 11.0773 3.83329 8.50002 3.83329C5.92269 3.83329 3.83335 5.92263 3.83335 8.49996C3.83335 11.0773 5.92269 13.1666 8.50002 13.1666Z" fill="#687588"/>
<path d="M8.50002 15.8066C8.13335 15.8066 7.83335 15.5333 7.83335 15.1666V15.1133C7.83335 14.7466 8.13335 14.4466 8.50002 14.4466C8.86669 14.4466 9.16669 14.7466 9.16669 15.1133C9.16669 15.48 8.86669 15.8066 8.50002 15.8066ZM13.26 13.9266C13.0867 13.9266 12.92 13.86 12.7867 13.7333L12.7 13.6466C12.44 13.3866 12.44 12.9666 12.7 12.7066C12.96 12.4466 13.38 12.4466 13.64 12.7066L13.7267 12.7933C13.9867 13.0533 13.9867 13.4733 13.7267 13.7333C13.6 13.86 13.4334 13.9266 13.26 13.9266ZM3.74002 13.9266C3.56669 13.9266 3.40002 13.86 3.26669 13.7333C3.00669 13.4733 3.00669 13.0533 3.26669 12.7933L3.35335 12.7066C3.61335 12.4466 4.03335 12.4466 4.29335 12.7066C4.55335 12.9666 4.55335 13.3866 4.29335 13.6466L4.20669 13.7333C4.08002 13.86 3.90669 13.9266 3.74002 13.9266ZM15.1667 9.16663H15.1134C14.7467 9.16663 14.4467 8.86663 14.4467 8.49996C14.4467 8.13329 14.7467 7.83329 15.1134 7.83329C15.48 7.83329 15.8067 8.13329 15.8067 8.49996C15.8067 8.86663 15.5334 9.16663 15.1667 9.16663ZM1.88669 9.16663H1.83335C1.46669 9.16663 1.16669 8.86663 1.16669 8.49996C1.16669 8.13329 1.46669 7.83329 1.83335 7.83329C2.20002 7.83329 2.52669 8.13329 2.52669 8.49996C2.52669 8.86663 2.25335 9.16663 1.88669 9.16663ZM13.1734 4.49329C13 4.49329 12.8334 4.42663 12.7 4.29996C12.44 4.03996 12.44 3.61996 12.7 3.35996L12.7867 3.27329C13.0467 3.01329 13.4667 3.01329 13.7267 3.27329C13.9867 3.53329 13.9867 3.95329 13.7267 4.21329L13.64 4.29996C13.5134 4.42663 13.3467 4.49329 13.1734 4.49329ZM3.82669 4.49329C3.65335 4.49329 3.48669 4.42663 3.35335 4.29996L3.26669 4.20663C3.00669 3.94663 3.00669 3.52663 3.26669 3.26663C3.52669 3.00663 3.94669 3.00663 4.20669 3.26663L4.29335 3.35329C4.55335 3.61329 4.55335 4.03329 4.29335 4.29329C4.16669 4.42663 3.99335 4.49329 3.82669 4.49329ZM8.50002 2.52663C8.13335 2.52663 7.83335 2.25329 7.83335 1.88663V1.83329C7.83335 1.46663 8.13335 1.16663 8.50002 1.16663C8.86669 1.16663 9.16669 1.46663 9.16669 1.83329C9.16669 2.19996 8.86669 2.52663 8.50002 2.52663Z" fill="#687588"/>
</svg>
