<svg width="20" height="20" viewBox="0 0 20 20" fill="none" xmlns="http://www.w3.org/2000/svg">
<path fill-rule="evenodd" clip-rule="evenodd" d="M9.99998 4.37508C6.32016 4.37508 3.33331 7.36193 3.33331 11.0417C3.33331 14.7216 6.32016 17.7084 9.99998 17.7084C13.6798 17.7084 16.6666 14.7216 16.6666 11.0417C16.6666 7.36193 13.6798 4.37508 9.99998 4.37508ZM2.08331 11.0417C2.08331 6.67157 5.6298 3.12508 9.99998 3.12508C14.3702 3.12508 17.9166 6.67157 17.9166 11.0417C17.9166 15.4119 14.3702 18.9584 9.99998 18.9584C5.6298 18.9584 2.08331 15.4119 2.08331 11.0417Z" fill="#000"/>
<path fill-rule="evenodd" clip-rule="evenodd" d="M9.99998 6.04175C10.3452 6.04175 10.625 6.32157 10.625 6.66675V10.8334C10.625 11.1786 10.3452 11.4584 9.99998 11.4584C9.6548 11.4584 9.37498 11.1786 9.37498 10.8334V6.66675C9.37498 6.32157 9.6548 6.04175 9.99998 6.04175Z" fill="#000"/>
<path fill-rule="evenodd" clip-rule="evenodd" d="M6.87498 1.66675C6.87498 1.32157 7.1548 1.04175 7.49998 1.04175H12.5C12.8452 1.04175 13.125 1.32157 13.125 1.66675C13.125 2.01193 12.8452 2.29175 12.5 2.29175H7.49998C7.1548 2.29175 6.87498 2.01193 6.87498 1.66675Z" fill="#000"/>
</svg>
