<svg width="20" height="20" viewBox="0 0 20 20" fill="none" xmlns="http://www.w3.org/2000/svg">
<path fill-rule="evenodd" clip-rule="evenodd" d="M17.9419 5.39131C18.186 5.63539 18.186 6.03112 17.9419 6.27519L11.2753 12.9419C11.0312 13.1859 10.6355 13.1859 10.3914 12.9419L7.5 10.0505L2.94194 14.6085C2.69786 14.8526 2.30214 14.8526 2.05806 14.6085C1.81398 14.3645 1.81398 13.9687 2.05806 13.7246L7.05806 8.72464C7.30214 8.48057 7.69786 8.48057 7.94194 8.72464L10.8333 11.616L17.0581 5.39131C17.3021 5.14723 17.6979 5.14723 17.9419 5.39131Z" fill="#000"/>
<path fill-rule="evenodd" clip-rule="evenodd" d="M11.0417 5.83325C11.0417 5.48807 11.3215 5.20825 11.6667 5.20825H17.5C17.8452 5.20825 18.125 5.48807 18.125 5.83325V11.6666C18.125 12.0118 17.8452 12.2916 17.5 12.2916C17.1548 12.2916 16.875 12.0118 16.875 11.6666V6.45825H11.6667C11.3215 6.45825 11.0417 6.17843 11.0417 5.83325Z" fill="#000"/>
</svg>
