<svg width="15" height="14" viewBox="0 0 15 14" fill="none" xmlns="http://www.w3.org/2000/svg">
<path fill-rule="evenodd" clip-rule="evenodd" d="M13.0594 10.2259C13.2302 10.0551 13.2302 9.77808 13.0594 9.60723L8.39269 4.94056C8.22184 4.76971 7.94483 4.76971 7.77397 4.94056L5.75 6.96453L2.55936 3.77389C2.3885 3.60304 2.1115 3.60304 1.94064 3.77389C1.76979 3.94475 1.76979 4.22176 1.94064 4.39261L5.44064 7.89261C5.6115 8.06347 5.8885 8.06347 6.05936 7.89261L8.08333 5.86864L12.4406 10.2259C12.6115 10.3968 12.8885 10.3968 13.0594 10.2259Z" fill="#E03137"/>
<path fill-rule="evenodd" clip-rule="evenodd" d="M8.22917 9.91659C8.22917 10.1582 8.42504 10.3541 8.66667 10.3541H12.75C12.9916 10.3541 13.1875 10.1582 13.1875 9.91659V5.83325C13.1875 5.59163 12.9916 5.39575 12.75 5.39575C12.5084 5.39575 12.3125 5.59163 12.3125 5.83325V9.47909H8.66667C8.42504 9.47909 8.22917 9.67496 8.22917 9.91659Z" fill="#E03137"/>
</svg>
